<svg width="20" height="22" viewBox="0 0 20 22" fill="none" xmlns="http://www.w3.org/2000/svg">
  <path d="M6.04167 1.98H5.83333C5.94792 1.98 6.04167 1.881 6.04167 1.76V1.98H13.9583V1.76C13.9583 1.881 14.0521 1.98 14.1667 1.98H13.9583V3.96H15.8333V1.76C15.8333 0.78925 15.0859 0 14.1667 0H5.83333C4.91406 0 4.16667 0.78925 4.16667 1.76V3.96H6.04167V1.98ZM19.1667 3.96H0.833333C0.372396 3.96 0 4.35325 0 4.84V5.72C0 5.841 0.09375 5.94 0.208333 5.94H1.78125L2.42448 20.3225C2.46615 21.2603 3.20052 22 4.08854 22H15.9115C16.8021 22 17.5339 21.263 17.5755 20.3225L18.2187 5.94H19.7917C19.9062 5.94 20 5.841 20 5.72V4.84C20 4.35325 19.6276 3.96 19.1667 3.96ZM15.7109 20.02H4.28906L3.65885 5.94H16.3411L15.7109 20.02Z" fill="#627D98" />
</svg>