<svg width="20" height="21" viewBox="0 0 20 21" fill="none" xmlns="http://www.w3.org/2000/svg">
  <path d="M3.6425 16.8C3.6925 16.8 3.7425 16.7948 3.7925 16.7869L7.9975 16.0125C8.0475 16.002 8.095 15.9784 8.13 15.939L18.7275 4.81162C18.7507 4.78734 18.7691 4.75849 18.7816 4.72674C18.7942 4.69498 18.8006 4.66094 18.8006 4.62656C18.8006 4.59218 18.7942 4.55814 18.7816 4.52639C18.7691 4.49463 18.7507 4.46579 18.7275 4.4415L14.5725 0.076125C14.525 0.02625 14.4625 0 14.395 0C14.3275 0 14.265 0.02625 14.2175 0.076125L3.62 11.2035C3.5825 11.2429 3.56 11.2901 3.55 11.3426L2.8125 15.7579C2.78818 15.8985 2.79687 16.0432 2.83782 16.1795C2.87877 16.3158 2.95074 16.4396 3.0475 16.5401C3.2125 16.7081 3.42 16.8 3.6425 16.8ZM5.3275 12.222L14.395 2.70375L16.2275 4.62787L7.16 14.1461L4.9375 14.5582L5.3275 12.222ZM19.2 19.005H0.8C0.3575 19.005 0 19.3804 0 19.845V20.79C0 20.9055 0.09 21 0.2 21H19.8C19.91 21 20 20.9055 20 20.79V19.845C20 19.3804 19.6425 19.005 19.2 19.005Z" fill="#627D98" />
</svg>